<svg width="258" height="224" viewBox="0 0 258 224" fill="none" xmlns="http://www.w3.org/2000/svg">
<path d="M258 96.5041C258 113.247 254.663 129.826 248.18 145.295C241.698 160.763 232.196 174.818 220.217 186.657C208.238 198.496 194.017 207.888 178.366 214.295C162.715 220.702 145.941 224 129 224C112.059 224 95.2848 220.702 79.6338 214.295C63.9828 207.888 49.762 198.496 37.7832 186.657C25.8045 174.818 16.3024 160.763 9.81954 145.295C3.33668 129.826 -1.48099e-06 113.247 0 96.5041H41.28C41.28 107.889 43.5489 119.163 47.9573 129.682C52.3656 140.2 58.827 149.758 66.9726 157.808C75.1181 165.859 84.7883 172.245 95.431 176.602C106.074 180.959 117.48 183.201 129 183.201C140.52 183.201 151.926 180.959 162.569 176.602C173.212 172.245 182.882 165.859 191.027 157.808C199.173 149.758 205.634 140.2 210.043 129.682C214.451 119.163 216.72 107.889 216.72 96.5041H258Z" fill="white"/>
<path fill-rule="evenodd" clip-rule="evenodd" d="M184.371 0L233.172 48.232L208.544 72.5734L184.371 48.6827L160.199 72.5734L135.57 48.232L184.371 0Z" fill="white"/>
<path fill-rule="evenodd" clip-rule="evenodd" d="M73.6387 0L122.44 48.232L97.8112 72.5734L73.6387 48.6827L49.4663 72.5734L24.8377 48.232L73.6387 0Z" fill="white"/>
</svg>
